<?xml version="1.0" encoding="UTF-8"?>
<svg id="Layer_1" xmlns="http://www.w3.org/2000/svg" version="1.1" xmlns:xlink="http://www.w3.org/1999/xlink" viewBox="0 0 864 576">
  <!-- Generator: Adobe Illustrator 30.2.1, SVG Export Plug-In . SVG Version: 2.1.1 Build 1)  -->
  <defs>
    <style>
      .st0 {
        fill: #fff;
      }

      .st1 {
        fill: #03f;
      }

      .st2 {
        opacity: .47;
      }

      .st3 {
        fill: none;
      }

      .st4 {
        clip-path: url(#clippath-1);
      }

      .st5 {
        fill: #7893ff;
      }

      .st6 {
        opacity: .2;
      }

      .st7 {
        clip-path: url(#clippath);
      }
    </style>
    <clipPath id="clippath">
      <rect class="st3" x="544.5" y="199.28" width="78.83" height="124.79"/>
    </clipPath>
    <clipPath id="clippath-1">
      <rect class="st3" x="500.78" y="206.42" width="69.8" height="110.51"/>
    </clipPath>
  </defs>
  <rect class="st1" width="864" height="576"/>
  <g>
    <polygon class="st5" points="272.62 227.02 272.62 308.07 253.74 308.07 217.97 264.9 217.97 308.07 195.5 308.07 195.5 227.02 214.38 227.02 250.15 270.19 250.15 227.02 272.62 227.02"/>
    <polygon class="st5" points="346.3 289.98 346.3 307.28 287.54 307.28 287.54 228.12 344.96 228.12 344.96 245.41 308.03 245.41 308.03 258.78 340.57 258.78 340.57 275.49 308.03 275.49 308.03 289.98 346.3 289.98"/>
    <polygon class="st5" points="432.28 307.28 406.46 307.28 390.05 282.8 373.91 307.28 348.34 307.28 377.2 267.18 349.59 228.12 374.8 228.12 390.69 251.01 406.25 228.12 430.45 228.12 402.9 266.36 432.28 307.28"/>
    <polygon class="st5" points="455.36 307.29 455.36 245.87 433.25 245.87 433.25 228.11 497.73 228.11 497.73 245.87 475.72 245.87 475.72 307.29 455.36 307.29"/>
  </g>
  <g>
    <path class="st0" d="M642.89,263.31l-41.32-40.46c-3.11-3.05-5.2-7.13-5.24-11.48-.03-3.38,1.1-7.09,5.15-9.8,5.68-3.8,13.37-2.69,18.28,2.07l50.98,49.35c3.52,3.41,5.26,8.43,4.01,13.15-.54,2.04-1.63,4.14-3.62,6.05l-52.98,51.27c-.15.15-.33.25-.54.29-14.01,2.91-23.11-14.25-12.78-24.11l38.05-36.31Z"/>
    <g class="st2">
      <g class="st7">
        <path class="st0" d="M591.06,263.31l-41.32-40.46c-3.11-3.05-5.2-7.13-5.24-11.48-.03-3.38,1.1-7.09,5.15-9.8,5.68-3.8,13.37-2.69,18.28,2.07l50.98,49.35c3.52,3.41,5.26,8.43,4.01,13.15-.54,2.04-1.63,4.14-3.62,6.05l-52.98,51.27c-.15.15-.33.25-.54.29-14.01,2.91-23.11-14.25-12.78-24.11l38.05-36.31Z"/>
      </g>
    </g>
    <g class="st6">
      <g class="st4">
        <path class="st0" d="M542.01,263.13l-36.59-35.83c-2.76-2.7-4.6-6.32-4.64-10.17-.03-2.99.98-6.28,4.56-8.68,5.03-3.37,11.84-2.38,16.18,1.83l45.15,43.7c3.12,3.02,4.66,7.46,3.55,11.64-.48,1.8-1.44,3.66-3.2,5.36l-46.92,45.4c-.14.13-.29.22-.48.26-12.41,2.58-20.46-12.62-11.31-21.35l33.69-32.16Z"/>
      </g>
    </g>
  </g>
  <g>
    <polygon class="st0" points="188.84 336.25 204.46 336.25 204.46 375.7 218.85 375.7 218.85 336.25 234.4 336.25 234.4 324.84 188.84 324.84 188.84 336.25"/>
    <path class="st0" d="M282.86,353.58c1.84-2.78,2.76-6.09,2.76-9.92,0-5.81-2-10.4-5.99-13.77-4-3.37-9.7-5.05-17.11-5.05h-22.74v50.86h14.39v-13.51h7.85l9.22,13.51h15.4l-10.99-16.01c3.07-1.46,5.48-3.49,7.21-6.11ZM268.87,338.14c1.48,1.31,2.22,3.15,2.22,5.52s-.74,4.14-2.22,5.45c-1.48,1.31-3.72,1.96-6.72,1.96h-7.99v-14.89h7.99c3,0,5.24.65,6.72,1.96Z"/>
    <path class="st0" d="M309.88,324.84l-22.45,50.86h14.68l3.97-9.88h21.57l3.97,9.88h14.97l-22.52-50.86h-14.17ZM310.33,355.21l6.53-16.26,6.53,16.26h-13.05Z"/>
    <polygon class="st0" points="384.94 351.95 362.49 324.84 350.64 324.84 350.64 375.7 364.74 375.7 364.74 348.6 387.19 375.7 399.03 375.7 399.03 324.84 384.94 324.84 384.94 351.95"/>
    <path class="st0" d="M443.93,349.37c-1.7-1.09-3.57-1.96-5.63-2.62-2.06-.65-4.12-1.2-6.18-1.63-2.06-.44-3.95-.86-5.67-1.27-1.72-.41-3.1-.94-4.14-1.6-1.04-.65-1.56-1.54-1.56-2.65,0-.87.27-1.65.8-2.32.53-.68,1.4-1.22,2.61-1.64,1.21-.41,2.81-.62,4.8-.62,2.23,0,4.53.33,6.9.98,2.37.65,4.77,1.64,7.19,2.94l4.43-10.68c-2.52-1.45-5.39-2.55-8.61-3.31-3.22-.75-6.5-1.13-9.84-1.13-4.99,0-9.15.75-12.5,2.25-3.34,1.5-5.85,3.49-7.52,5.96-1.67,2.47-2.51,5.23-2.51,8.28,0,2.71.53,4.95,1.6,6.72,1.07,1.77,2.44,3.2,4.14,4.29,1.69,1.09,3.57,1.98,5.63,2.65,2.06.68,4.12,1.23,6.17,1.67,2.06.43,3.93.87,5.63,1.31,1.7.44,3.07.99,4.14,1.67,1.07.68,1.6,1.6,1.6,2.76,0,.82-.28,1.54-.83,2.14-.56.61-1.44,1.09-2.65,1.45-1.21.36-2.81.54-4.79.54-2.96,0-5.92-.47-8.9-1.42-2.98-.95-5.61-2.14-7.88-3.6l-4.72,10.61c2.42,1.65,5.56,2.99,9.41,4.03,3.85,1.04,7.86,1.56,12.02,1.56,5.04,0,9.21-.75,12.53-2.25,3.32-1.5,5.81-3.5,7.48-5.99,1.67-2.49,2.51-5.22,2.51-8.17,0-2.66-.52-4.88-1.56-6.65-1.04-1.77-2.41-3.2-4.11-4.29Z"/>
    <path class="st0" d="M491.49,327.1c-3.37-1.5-7.38-2.25-12.02-2.25h-23.25v50.86h14.39v-13.3h8.86c4.65,0,8.66-.76,12.02-2.29,3.37-1.53,5.97-3.69,7.81-6.5,1.84-2.81,2.76-6.13,2.76-9.95s-.92-7.23-2.76-10.06c-1.84-2.83-4.44-5-7.81-6.5ZM485.31,349.11c-1.48,1.31-3.72,1.96-6.72,1.96h-7.99v-14.9h7.99c3,0,5.24.65,6.72,1.96,1.48,1.31,2.22,3.15,2.22,5.52s-.74,4.14-2.22,5.45Z"/>
    <path class="st0" d="M555.6,331.35c-2.52-2.4-5.49-4.25-8.9-5.56-3.41-1.31-7.18-1.96-11.3-1.96s-7.82.65-11.26,1.96c-3.44,1.31-6.43,3.16-8.97,5.56-2.54,2.4-4.52,5.2-5.92,8.39-1.41,3.2-2.11,6.71-2.11,10.53s.7,7.34,2.11,10.54c1.4,3.2,3.38,5.99,5.92,8.39,2.54,2.4,5.53,4.25,8.97,5.56,3.44,1.31,7.19,1.96,11.26,1.96s7.88-.65,11.3-1.96c3.42-1.31,6.38-3.15,8.9-5.52,2.52-2.37,4.49-5.17,5.92-8.39,1.43-3.22,2.14-6.74,2.14-10.57s-.72-7.34-2.14-10.53c-1.43-3.2-3.4-5.99-5.92-8.39ZM548.09,356.23c-.7,1.79-1.67,3.33-2.91,4.61-1.24,1.28-2.69,2.27-4.36,2.94-1.67.68-3.48,1.02-5.41,1.02s-3.74-.34-5.41-1.02c-1.67-.68-3.12-1.66-4.36-2.94-1.24-1.28-2.2-2.82-2.91-4.61s-1.05-3.78-1.05-5.96.35-4.23,1.05-5.99,1.67-3.29,2.91-4.58c1.23-1.28,2.69-2.26,4.36-2.94,1.67-.68,3.48-1.02,5.41-1.02s3.74.34,5.41,1.02c1.67.68,3.12,1.66,4.36,2.94,1.24,1.29,2.2,2.81,2.91,4.58.7,1.77,1.05,3.77,1.05,5.99s-.35,4.17-1.05,5.96Z"/>
    <path class="st0" d="M614.31,353.58c1.84-2.78,2.76-6.09,2.76-9.92,0-5.81-2-10.4-5.99-13.77-4-3.37-9.7-5.05-17.11-5.05h-22.74v50.86h14.39v-13.51h7.85l9.22,13.51h15.4l-10.99-16.01c3.07-1.46,5.48-3.49,7.21-6.11ZM600.32,338.14c1.48,1.31,2.21,3.15,2.21,5.52s-.74,4.14-2.21,5.45c-1.48,1.31-3.72,1.96-6.72,1.96h-7.99v-14.89h7.99c3,0,5.24.65,6.72,1.96Z"/>
    <polygon class="st0" points="619.47 324.84 619.47 336.25 635.09 336.25 635.09 375.7 649.48 375.7 649.48 336.25 665.02 336.25 665.02 324.84 619.47 324.84"/>
  </g>
</svg>